<svg xmlns="http://www.w3.org/2000/svg" viewBox="0 0 100 100"><defs><radialGradient id="g"><stop stop-color="#dff58a"/><stop offset="1" stop-color="#72b82d"/></radialGradient></defs><path d="M55 8C35 10 17 42 18 64c1 19 15 28 32 27 20-1 35-13 33-32C81 39 69 7 55 8z" fill="#397d26" stroke="#1e5c1b" stroke-width="5"/><path d="M54 17C39 18 27 43 28 62c1 13 10 20 23 19 15-1 24-9 23-22-2-17-11-43-20-42z" fill="url(#g)"/><ellipse cx="53" cy="61" rx="15" ry="18" fill="#7a3e20"/><ellipse cx="49" cy="56" rx="8" ry="9" fill="#b96b34"/></svg>